<svg
	xmlns="http://www.w3.org/2000/svg" width="1000px" height="400px" viewBox="0 0 129 50">
	<path d="M97.313.262a21 21 0 0 1-.797.457 5 5 0 0 0-.496.304.8.8 0 0 1-.172.106c-.02 0-.192.105-.395.226-.851.54-2.344 1.399-2.508 1.45-.058.02-.18.082-.265.144a.8.8 0 0 1-.211.11c-.031 0-.156.09-.281.195-.133.11-.356.254-.504.324s-.34.18-.418.246a12 12 0 0 1-.508.32c-.192.114-.48.286-.64.383-.161.102-.305.18-.317.18s-.137.078-.278.164c-.14.09-.273.168-.285.168-.015 0-.16.078-.32.176-.445.281-1.3.789-1.473.879-.136.07-.172.07-.398.004-.133-.04-.57-.157-.969-.258-.914-.242-1.766-.469-2.574-.68-.348-.094-.918-.246-1.266-.336-.343-.094-.902-.238-1.238-.328-.332-.09-.879-.234-1.219-.324-2.336-.613-2.8-.738-2.84-.762-.054-.035-.093.074-.046.137.023.031.21.371.406.762.203.386.496.96.656 1.27.434.839.852 1.651 1.29 2.495.206.414.503.985.651 1.27.938 1.808 1.051 2.054 1.004 2.133-.027.043-.222.203-.422.351-.203.149-1.515 1.137-2.921 2.203-2.832 2.14-2.528 1.961-3.696 2.23-.297.071-.75.18-1.008.239-.257.063-.796.191-1.195.285a10 10 0 0 0-.828.219c-.055.031-.805.75-1.66 1.601-1.762 1.747-1.516 1.594-2.192 1.399a517.393 517.393 0 0 1-3.066-.867c-1.336-.375-2.621-.739-2.852-.797-.226-.063-.44-.145-.476-.176a1.6 1.6 0 0 1-.176-.36c-.07-.16-.187-.433-.262-.6a2 2 0 0 1-.14-.325c0-.012-.086-.203-.188-.426a6 6 0 0 1-.187-.422c0-.015-.051-.136-.117-.281-.114-.246-.641-1.453-1.907-4.355-.308-.711-.625-1.426-.695-1.594a3 3 0 0 1-.137-.313c0-.011-.062-.152-.14-.316a7 7 0 0 1-.184-.43c-.027-.07-.066-.125-.09-.125s-.133.14-.242.313l-.398.629-1.309 2.07-1.344 2.129-.234.367h-2.129l-.168-.437c-.2-.516-1.46-3.668-1.555-3.872-.035-.078-.14-.343-.234-.59-.094-.242-.187-.464-.21-.488-.024-.023-.477.39-1.063.965a2302 2302 0 0 1-3.829 3.762c-.515.508-1.34 1.32-1.828 1.805s-.922.878-.957.878c-.039 0-1.672-.535-3.629-1.195l-3.558-1.195-.106-.176c-.062-.094-.289-.492-.511-.883-.477-.855-.614-1.094-.715-1.281-.047-.082-.242-.438-.446-.8-.425-.77-.48-.84-.714-.911a63 63 0 0 0-1.508-.437c-.535-.141-.574-.165-.54-.31.028-.116.106-.523.278-1.523.035-.218.125-.695.191-1.058.067-.363.16-.902.211-1.2.051-.296.114-.636.137-.753.05-.246.07-.352.36-1.953.117-.653.234-1.297.257-1.438.024-.14.055-.34.07-.437.02-.094.02-.176.005-.176-.016 0-2.051 1.02-4.524 2.262-2.469 1.242-4.52 2.261-4.55 2.261a.4.4 0 0 1-.157-.062c-.05-.04-.348-.2-.656-.363l-.746-.399a131 131 0 0 0-1.219-.66c-1.04-.555-2.25-1.211-2.832-1.531-.844-.461-1.262-.66-1.281-.602-.016.031-.047.492-.075 1.027-.062 1.047-.109 1.887-.183 3.13-.027.437-.082 1.324-.117 1.96-.102 1.727-.114 1.77-.262 1.875a.7.7 0 0 1-.156.098c-.008 0-.203.102-.434.223-.23.129-.71.382-1.074.574-.36.191-.672.36-.7.379-.199.144-.222.125-1.011-.844-.422-.516-.793-.941-.82-.945-.032 0-.114.078-.188.172a7 7 0 0 1-.39.468c-.141.157-.426.485-.633.723-.207.246-.477.562-.61.707-.28.316-.394.45-.902 1.047-.465.539-.18.473-2.492.578a540 540 0 0 0-2.48.117c-.477.024-1.157.063-1.508.074-.415.02-.645.047-.645.082 0 .028.078.145.18.262l3.765 4.703c.285.36.453.606.438.653-.031.07-2.871 4.09-3.059 4.316a.5.5 0 0 0-.105.176c0 .035.18.14 1.027.601.168.09.399.215.516.282.117.062.37.203.562.308.192.102.375.2.399.219.027.02.257.148.511.285.258.133.493.262.516.281.027.02.215.125.422.235.582.316 1.312.715 1.824 1 .258.144.598.328.75.414.156.082.375.207.492.273.117.059.387.211.61.328.543.286.55.297.425.47-.05.081-.097.155-.097.175 0 .016-.078.144-.164.289-.09.14-.164.262-.164.273 0 .008-.121.223-.274.485-.148.254-.328.554-.39.672l-.368.636c-.136.23-.3.516-.359.633-.066.121-.137.23-.156.262-.02.023-.078.125-.133.226-.059.098-.266.461-.461.797-.195.344-.426.743-.504.883l-.492.848c-.188.324-.375.648-.418.719-.082.152-.117.117.418.414.168.09.43.238.586.324.152.086.605.336 1.004.558.398.22 1.074.598 1.5.832.426.239.965.536 1.191.66.235.126.578.32.766.434.191.114.347.2.36.2.003 0 .253.136.542.296.508.29.89.5 1.445.801.141.082.493.274.774.434.285.16.707.394.934.52.234.12.445.237.468.257.031.02.156.094.281.164.32.18.27.18 2.997-.164.207-.023.82-.098 1.359-.164.543-.063 1.14-.137 1.332-.16.191-.028.629-.082.96-.121.888-.11 1.356-.168 1.755-.219.191-.023.781-.094 1.312-.16.528-.063 1.16-.14 1.41-.168l.454-.059.46.262c.254.14 1.337.746 2.403 1.355 1.066.602 2.058 1.157 2.2 1.239.14.078.5.277.796.445.664.379.746.43 1.094.617.148.086.379.215.511.297.391.23.344.238 1.497-.18.175-.058.453-.164.632-.226.172-.067.536-.192.805-.285.273-.102.902-.32 1.406-.504 1.223-.442 1.785-.645 2.535-.914.528-.188.782-.278 1.137-.41.184-.067.844-.301 1.477-.528.629-.219 1.23-.437 1.332-.48a49 49 0 0 1 1.652-.582.5.5 0 0 1 .25-.02c.05.02.496.258.992.535.496.278 1.067.598 1.274.711.203.114.531.293.722.403.192.109.543.3.774.422.234.128.476.265.547.316.066.047.16.086.203.086.039 0 .582-.438 1.203-.98.617-.536 1.21-1.051 1.324-1.141.106-.09.336-.285.504-.438.176-.148.336-.265.375-.258.031.008.172.141.309.297.14.157.379.418.539.59.16.168.644.695 1.082 1.176.433.48 1.023 1.125 1.308 1.43.649.707 1.012 1.109 1.547 1.695.235.258.45.5.485.539.09.086.25.059 1.336-.25l1.246-.348c.191-.054.582-.156.863-.238.285-.078.64-.18.797-.219.152-.043.332-.097.398-.113.067-.02.211-.062.328-.094.118-.035.305-.086.418-.12l.399-.106c.105-.032.379-.11.61-.176.683-.191 1.28-.363 1.546-.434a318 318 0 0 0 3.25-.906c.168-.047.465-.133.656-.184.192-.054.57-.156.844-.23.805-.234.453-.234 5.219-.035.926.039 1.91.07 2.18.07.519 0 .632-.023 2.5-.515.546-.149 1.152-.305 2.433-.637.441-.113.922-.242 1.078-.281.875-.243 1.563-.403 1.695-.403.079 0 .313.035.512.07.203.044.473.094.602.118.129.031.484.101.793.16.312.062.84.168 1.172.23.336.067 1.136.227 1.789.36.648.133 1.218.238 1.273.238.05 0 .5-.14.996-.309s1.04-.351 1.207-.406l.305-.097.219.12c.215.126 3.867 2.422 4.03 2.54.087.062.075.097-.202.742-.156.379-.317.746-.348.824-.039.078-.258.598-.496 1.156-.398.95-.52 1.23-.676 1.575-.031.078-.117.277-.187.449-.07.168-.172.414-.235.539-.054.133-.183.43-.28.66-.095.234-.224.54-.286.676-.059.133-.113.254-.113.265s-.063.157-.145.332c-.078.168-.137.329-.125.348.008.024.192-.047.41-.148.223-.102.535-.246.703-.328.168-.075.415-.188.54-.25l.835-.395c.332-.16.61-.29.614-.29.011 0 .285-.124.62-.284.532-.254 1.364-.649 2.188-1.031.157-.07.461-.22.68-.32 1.45-.688 1.934-.903 2-.903.04 0 .234.086.43.191.195.11.465.254.59.325.128.07.496.273.82.449.32.172.691.375.816.445.133.07.446.242.703.379.258.137.63.336.82.445.192.11.544.301.77.426.235.121.73.39 1.106.59.379.207.71.375.742.375.039 0 .05-.082.031-.297l-.074-.836c-.05-.59-.16-1.812-.234-2.59l-.094-1.035c-.028-.297-.078-.863-.117-1.266-.04-.398-.07-.851-.07-1.011v-.29l.808-.667c.441-.367.848-.707.898-.754.325-.293.922-.77.953-.758.016.012.247.156.512.332.285.191.531.32.606.32.097 0 1.699-.593 3.101-1.156.09-.031.977-.375 1.969-.762 1.375-.53 1.832-.73 1.945-.836.086-.078.633-.789 1.223-1.578a462 462 0 0 1 1.957-2.613c.484-.648 1.113-1.484 1.394-1.86.282-.378.551-.726.598-.78.176-.196.211-.133-.918-1.524-.258-.316-.52-.645-.582-.734l-1.508-1.883c-.543-.664-.789-.965-.789-.989 0-.02.219-.328.48-.695 2.391-3.351 3.407-4.793 3.407-4.844 0-.035-.215-.308-.48-.605-.266-.297-.942-1.07-1.508-1.719a99 99 0 0 0-1.055-1.199c-.012-.016-.316-.363-.68-.777-.359-.414-.675-.778-.707-.809-.027-.027-.316-.36-.644-.734l-.598-.684-.402-.027c-.227-.02-1.156-.063-2.07-.106-1.801-.074-2.833-.117-5.36-.23-.898-.035-2.152-.094-2.781-.117-.66-.028-1.168-.07-1.203-.098-.032-.027-.133-.203-.235-.387-.175-.351-.48-.933-.742-1.422-.086-.156-.273-.52-.422-.8-.351-.672-.808-1.547-1.355-2.59-.11-.207-.313-.586-.445-.848-.137-.258-.305-.578-.376-.703-.07-.133-.273-.52-.449-.863-.18-.34-.336-.618-.36-.61-.019.008-.198.375-.39.813-.191.441-.379.86-.418.941-.03.074-.207.48-.386.895a83 83 0 0 1-.473 1.066c-.078.176-.191.442-.258.59-.062.152-.191.441-.285.648-.098.207-.211.477-.258.594-.222.57-.281.656-.441.656-.364 0-2.16-.203-2.211-.254-.055-.046-1.551-3-2.692-5.312-.293-.586-.543-1.066-.558-1.074-.02 0-.11.183-.207.41a1412.77 1412.77 0 0 0-1.594 3.719.6.6 0 0 1-.11.175c-.054.04-.847-.164-.847-.21 0-.04.16-.848.398-1.997.063-.289.172-.84.254-1.226.078-.39.207-1 .285-1.363.168-.762.254-1.176.348-1.672.309-1.578.5-2.457.55-2.52.056-.062.048-.117-.019-.117-.03 0-.261.121-.504.262m-86.446 22.11c-.031.034-.055.038-.055.01 0-.066.055-.12.09-.089.008.016-.004.05-.035.078m111.906 6.542c0 .023-.039.04-.093.04-.102 0-.125-.075-.032-.106.07-.024.125.004.125.066M60.707 35.5c0 .023-.031.031-.07.02-.035-.02-.07-.04-.07-.047 0-.012.035-.02.07-.02.039 0 .07.02.07.047m0 0" style="stroke:none;fill-rule:nonzero;fill:#7e68a8;fill-opacity:1"/>
	<path d="M94.926 3.86c-.035.027-.18.136-.32.25s-.336.269-.438.343c-.203.156-.414.317-.766.59-.132.105-.328.254-.433.336l-.41.316-.41.32c-.106.079-.29.223-.41.317-.122.094-.305.238-.41.316-.329.254-.563.438-.798.622-.125.097-.3.234-.394.304s-.274.215-.41.317l-1.25.972-.293.227a7 7 0 0 1-.38.289c-.042.023-.093.012-.41-.086l-.511-.16c-.121-.04-.613-.188-1.094-.336-.48-.145-1.137-.348-1.46-.445-1.763-.54-1.778-.543-1.778-.512 0 .008.07.187.16.398s.195.461.234.559c.043.098.14.336.22.523l.507 1.207.836 1.989c.152.355.16.379.152.402-.004.008-.05.05-.101.098-.149.12-.364.312-.782.695-.21.195-.449.41-.53.484-.087.075-.192.172-.243.22-.133.124-.617.565-.797.726-.086.078-.281.257-.437.402-.153.145-.348.32-.434.395a9 9 0 0 0-.277.253c-.395.364-.594.547-.766.7-.106.09-.266.238-.36.32-.218.207-.527.488-.648.598-.129.113-.578.523-.8.726-.157.145-.188.18-.165.18.032 0 .176-.047.305-.102.09-.035.285-.113.438-.168.148-.058.44-.172.644-.25l.711-.277c.191-.07.648-.25 1.02-.39l.894-.348c.125-.047.547-.215.941-.367.875-.34.915-.352 1.23-.477.138-.05.298-.113.352-.133.055-.023.196-.078.317-.125.117-.047.32-.125.45-.176.128-.054.25-.097.269-.101.043-.008.027-.047.214.453.512 1.36 1.504 3.933 1.555 4.035.031.066.067.106.074.09.004-.008.024-.086.04-.176.027-.148.09-.422.19-.848.09-.359.38-1.57.493-2.054.07-.293.176-.727.23-.957.254-1.078.426-1.805.47-1.98.023-.102.046-.2.058-.212.023-.039.117-.082.441-.214.156-.067.414-.172.574-.243l.754-.316c.254-.106.727-.305 1.047-.441.324-.137.711-.297.864-.364.148-.062.425-.18.613-.258.59-.25.836-.351 1.113-.464s.426-.18.426-.2c0-.015-.297-.074-.55-.105-.056-.008-.212-.031-.352-.055-.536-.086-1.004-.156-1.497-.234l-.914-.14c-.144-.024-.343-.052-.445-.067a1 1 0 0 1-.191-.035c-.012-.008 0-.028.164-.325.133-.238.402-.73.863-1.57.14-.254.363-.656.492-.894.13-.235.352-.633.488-.883.137-.25.336-.617.45-.817.11-.203.238-.433.28-.511.044-.082.142-.258.216-.391.07-.133.195-.355.27-.492.257-.477.394-.727.507-.926.11-.184.195-.36.195-.383q-.002-.034-.097.035M26.176 5.566c-.051.028-.156.09-.235.137a7 7 0 0 1-.316.18c-.094.054-.45.258-.785.445-.332.192-.75.43-.93.531-.176.102-.55.313-.828.473l-1.586.906c-.156.086-.367.207-.469.266a2 2 0 0 1-.218.117c-.036.008-.075-.016-.223-.144-.063-.051-.215-.176-.344-.278-.129-.105-.332-.27-.457-.367-.289-.23-.754-.605-1.004-.805l-.394-.312-.426-.34c-.129-.105-.332-.27-.457-.367-.52-.418-.61-.485-.621-.473a.7.7 0 0 0 .02.152c.042.27.128.766.222 1.356.05.324.156.973.234 1.441l.192 1.172c.074.461.168 1.016.195 1.168a.6.6 0 0 1 .012.145 1.3 1.3 0 0 1-.203.11c-.106.05-.715.35-1.356.667-.64.32-1.715.852-2.387 1.184-.671.336-1.257.633-1.304.664a.5.5 0 0 0-.098.082l-.02.027.044-.008c.054-.011 6.12-.03 6.132-.02.004.005.04.184.075.395.035.215.097.575.132.801.133.8.239 1.41.282 1.652.02.11.047.266.058.356.028.156.04.2.059.2.012 0 .062-.063.09-.118.015-.04.558-.973 1.285-2.219.164-.281.316-.547.344-.594l.183-.312c.188-.324.45-.777.5-.867.059-.106.11-.16.168-.188.028-.011.13-.035.235-.047.101-.011.304-.039.449-.058.633-.086.734-.098.984-.13l.477-.062c.12-.02.383-.05.586-.078l.625-.086c.144-.015.343-.043.453-.058.105-.012.273-.035.367-.051.098-.016.258-.04.36-.047.167-.016.34-.039.675-.082a.6.6 0 0 0 .156-.031c.016-.016-.074-.078-.203-.137-.066-.035-.308-.148-.539-.258-.226-.113-.601-.293-.828-.402l-.68-.332-.597-.29c-.184-.089-.434-.206-.555-.26a1.4 1.4 0 0 1-.227-.122c0-.008.06-.117.133-.238.13-.211.934-1.551 1.414-2.364.121-.195.403-.671.633-1.058.23-.383.461-.766.512-.848a1 1 0 0 0 .098-.183c.003-.02.007-.04.003-.04 0 0-.046.024-.097.047m0 0" style="stroke:none;fill-rule:nonzero;fill:#ffffb9;fill-opacity:1"/>
	<path d="M98.824 12.309a3 3 0 0 0-.097.285c-.043.14-.094.3-.11.36-.02.058-.14.444-.265.858-.125.415-.278.915-.34 1.114-.11.363-.254.84-.516 1.699l-.308 1.012-.356 1.172c-.11.351-.266.87-.352 1.152s-.218.727-.3.984c-.176.586-.297.97-.325 1.051a.3.3 0 0 0-.023.102c0 .043.023.07.23.25.168.14.352.308.63.57.128.117.406.375.62.57.211.192.465.426.56.516.097.09.269.25.386.355.23.207.32.301.347.352.024.047.04.105.07.254.044.258.118.64.24 1.265.07.356.147.782.179.946.031.168.101.535.16.824.055.29.133.7.176.914.039.211.117.61.168.875.129.672.164.879.164.941 0 .075-.024.2-.211 1.086-.281 1.325-.32 1.516-.477 2.258-.187.883-.25 1.172-.297 1.375a.7.7 0 0 0-.03.16 198.213 198.213 0 0 1 2.828.934c.714.238.695.23.73.223.015-.004.097-.059.187-.121.086-.063.254-.184.375-.262.227-.156.883-.61 1.375-.953.164-.117.414-.29.555-.383.297-.203.332-.23.34-.277a8 8 0 0 0-.032-.465 32 32 0 0 1-.054-.637l-.043-.547c-.016-.191-.035-.46-.047-.594a35 35 0 0 0-.05-.675l-.056-.692a23 23 0 0 0-.05-.644c-.02-.215-.04-.47-.047-.567-.008-.097-.016-.215-.024-.258a.2.2 0 0 1-.004-.09c.008-.015.098-.042.48-.152l.395-.113c.012-.004.028.012.051.062.02.04.125.235.239.438.109.203.308.57.437.812s.316.59.414.766c.094.18.234.434.305.57l.219.403c.046.082.128.238.187.347.145.278.61 1.133.652 1.207.07.118.063.118.274.098.305-.023.5-.035.777-.047.145-.008.38-.02.52-.031.254-.016.73-.04 1.222-.063a83.25 83.25 0 0 1 1.848-.102c.203-.007.254-.019.29-.054.015-.015.07-.113.124-.222l.262-.512c.16-.32.308-.606.496-.977.055-.11.187-.367.293-.574l.312-.613.282-.555c.086-.176.171-.344.187-.375.125-.227.227-.434.219-.45a1 1 0 0 0-.137-.1c-.074-.052-.21-.145-.308-.216l-1.528-1.085c-1.535-1.09-1.445-1.028-1.82-1.293-.25-.176-.488-.348-.895-.633a14 14 0 0 0-.394-.278c-.297-.207-.422-.308-.465-.379-.04-.07-.07-.16-.2-.582-.062-.199-.14-.453-.175-.562l-.297-.953-.539-1.719c-.125-.39-.156-.5-.187-.625-.043-.172-.098-.559-.215-1.484-.02-.121-.047-.34-.067-.48a36 36 0 0 1-.133-1.009c-.007-.035-.023-.171-.043-.304a11 11 0 0 1-.05-.383c-.012-.078-.035-.258-.055-.395-.02-.14-.055-.414-.082-.613a153 153 0 0 0-.262-1.883c-.02-.113-.031-.14-.05-.113a2 2 0 0 0-.09.21c-.04.106-.11.282-.157.388a251 251 0 0 0-.75 1.78l-.675 1.614c-.133.324-.48 1.145-.684 1.63-.07.171-.184.44-.25.6-.164.395-.25.583-.277.606-.02.02-.075.024-.395.043l-.433.027c-.063.008-.473.04-.887.067-.094.008-.27.02-.387.031-.176.016-.219.016-.234.004-.028-.027-.059-.098-.125-.293l-.13-.371c-.175-.5-.331-.941-.452-1.277-.07-.204-.184-.528-.25-.715l-.258-.727c-.074-.215-.195-.55-.266-.75l-.199-.558c-.035-.11-.152-.434-.254-.723-.101-.29-.242-.68-.308-.871l-.582-1.649c-.079-.218-.184-.511-.235-.66-.164-.465-.176-.492-.187-.5-.004-.004-.016.008-.024.028m0 0" style="stroke:none;fill-rule:nonzero;fill:#fbc5f7;fill-opacity:1"/>
	<path d="M9.316 12.816a2 2 0 0 0-.164.239 65 65 0 0 1-.996 1.582c-.031.031-.031.031-.12.023a7 7 0 0 1-.325-.043c-.129-.02-.344-.047-.473-.066l-.347-.043a7 7 0 0 0-.348-.047c-.133-.02-.293-.04-.352-.047-.058-.012-.218-.031-.351-.05-.137-.016-.313-.04-.395-.052a5 5 0 0 0-.53-.058l-.048.004.043.047c.02.027.227.215.453.414.227.207.512.465.63.578.12.113.335.312.476.437.293.266.629.575.789.727.082.082.105.113.105.137 0 .02-.023.086-.05.152-.055.117-.25.61-.786 1.96-.144.368-.293.731-.328.81-.078.183-.086.203-.078.21.016.016-.008.032 1.27-.804.28-.184.656-.43.832-.543.175-.11.398-.258.5-.324.117-.079.191-.122.21-.122.04 0 .06.016.262.204.086.078.227.203.317.28.168.142.285.243.547.477.234.204.476.41.613.512q.012.006.012-1.195c0-1.363-.012-1.227.101-1.313l.266-.191c.113-.078.383-.273.597-.434.473-.347.88-.644 1.07-.777.145-.105.286-.234.286-.266 0-.011-.02-.015-.137-.015-.168 0-.37-.016-.722-.051-.149-.02-.368-.04-.485-.05a9 9 0 0 1-.402-.04l-.34-.035c-.61-.05-.926-.086-1.027-.113-.024-.008-.036-.047-.086-.313-.024-.117-.063-.297-.082-.394-.024-.098-.07-.309-.106-.473a11 11 0 0 0-.09-.398c-.011-.059-.047-.215-.074-.352a2 2 0 0 0-.058-.25c-.008-.004-.043.027-.079.066M26.527 12.95c.008.046.02.081.121.402.043.144.114.363.153.488.039.129.097.324.133.433.039.114.066.215.066.227 0 .023-.05.047-.437.219-.13.054-.442.195-.696.308-.445.196-.875.387-1.094.48a.7.7 0 0 0-.113.06c-.02.023.02.035.18.058l1.637.234c.421.063.789.121.808.13.059.023.078.054.39.636.075.14.192.355.255.477.066.12.168.308.222.414.184.343.246.453.262.453.02 0 .047-.07.176-.453.062-.18.148-.442.2-.586l.23-.692c.082-.238.156-.453.171-.48.024-.051.051-.055.168-.028.106.024.383.067.86.137.363.051.96.149 1.164.188.031.008.058.011.062.008.02-.024-.066-.094-.277-.215-.09-.051-.32-.192-.523-.317-.2-.12-.493-.3-.653-.394-.156-.098-.324-.2-.367-.227-.074-.05-.074-.05-.07-.094.004-.023.062-.168.136-.324.43-.933.48-1.062.446-1.062a49.14 49.14 0 0 1-1.797.55c-.059.004-.05.012-.469-.25-1.02-.636-1.32-.82-1.344-.82-.004 0-.004.02 0 .04M94.145 13.379c-.06.047-.07.059-.262.285-.078.094-.192.234-.258.309l-.453.527a11 11 0 0 1-.434.504c-.039.035-.035.035-.355-.106-.13-.058-.39-.171-.582-.257-.196-.082-.414-.18-.489-.211-.214-.098-.351-.153-.402-.16l-.047-.008.024.035c.011.023.101.152.195.297.094.14.297.453.45.695.156.242.32.504.37.582.102.16.11.188.059.262-.04.05-.625.914-.852 1.246-.082.125-.195.289-.246.363-.125.18-.195.293-.183.297.007.004.152-.066.324-.152l.562-.274c.133-.062.371-.18.528-.254a2 2 0 0 1 .297-.132c.004 0 .023.039.043.082.015.046.09.218.16.382.074.164.187.43.254.586.12.29.144.344.164.344.008 0 .047-.117.125-.383.035-.113.11-.37.172-.578l.207-.687c.129-.434.171-.559.203-.602.039-.047.11-.082.426-.207.144-.059.402-.164.574-.238.172-.07.383-.156.472-.196.235-.093.387-.183.36-.207a.8.8 0 0 0-.16-.03 15 15 0 0 1-.907-.141 8 8 0 0 0-.296-.051c-.239-.035-.231-.031-.231-.074a40 40 0 0 1 .246-1.887.2.2 0 0 0-.058.039m0 0" style="stroke:none;fill-rule:nonzero;fill:#fee692;fill-opacity:1"/>
	<path d="M47.852 14.45c-.012.01-.063.097-.118.187-.058.09-.21.332-.347.539l-.469.722c-.125.192-.383.59-.57.887-.196.293-.489.75-.66 1.016-.168.265-.41.637-.536.828-.996 1.539-1.484 2.293-1.515 2.344-.055.101-.09.27-.09.453 0 .097.008.12.047.129.031.008.699.062 1.422.113.265.02.539.039.609.047s.352.027.625.047.555.043.625.047c.074.007.387.03.703.054.317.024.598.043.625.047.031.004.281.024.559.04.277.023.554.042.625.05.066.004.343.023.613.047.27.015.578.043.684.05.187.016.55.044.847.06.125.007.137.011.137.03 0 .016-.047.13-.102.254-.054.13-.113.274-.136.32-.032.087-.102.262-.348.844a291.884 291.884 0 0 1-.672 1.617c-.07.165-.172.41-.226.548-.059.136-.164.394-.243.578l-.222.535c-.203.5-.711 1.715-.844 2.031-.113.262-.18.45-.223.621-.015.067-.097.508-.183.985-.09.476-.196 1.066-.239 1.312-.238 1.293-.386 2.117-.46 2.52-.043.246-.098.535-.122.64-.023.106-.039.2-.039.207 0 .024.047.047.215.106.14.05.477.175 1.461.554.278.106.668.254.867.328.649.247 1.426.543 1.547.594.067.024.145.055.176.059.055.015.063.012.121-.02.094-.054.594-.351 1.352-.812.37-.227 1.066-.645 1.539-.93s.875-.531.89-.543c.02-.015.032-.035.032-.047a2 2 0 0 0-.04-.164c-.019-.082-.058-.234-.081-.34l-.098-.43c-.031-.132-.102-.425-.153-.652a73 73 0 0 0-.277-1.148c-.027-.102-.027-.11-.012-.125.012-.008.145-.067.293-.133.149-.066.325-.144.391-.18a1 1 0 0 1 .148-.054c.02 0 .043.023.09.097.035.055.227.328.426.61.2.281.438.62.527.754.504.71.829 1.164.848 1.175.016.008.082-.003.242-.039.121-.03.305-.074.41-.097.301-.067 1.399-.317 2.372-.543.32-.074.66-.153.75-.168l.347-.082c.055-.016.055-.02.008-.184-.09-.332-.219-.808-.305-1.137-.05-.195-.133-.5-.18-.675s-.128-.48-.183-.676c-.05-.2-.113-.434-.14-.524l-.297-1.105-.094-.355c-.168-.618-.207-.77-.235-.875-.039-.165-.07-.247-.101-.266-.047-.031-.348-.129-1.29-.43-.206-.066-.519-.168-.698-.222a200 200 0 0 0-1.594-.512l-.563-.18a1 1 0 0 1-.148-.055c-.074-.03-.063-.043.058-.09.16-.062.497-.206 1.395-.609l.586-.262c.273-.12.289-.132.289-.175 0-.032-.066-.25-.293-.961-.238-.742-.32-1.004-.43-1.356-.066-.207-.246-.777-.406-1.27l-.52-1.636c-.128-.406-.285-.894-.343-1.082-.063-.187-.18-.562-.266-.828-.168-.535-.59-1.852-.66-2.063-.012-.027-.035.012-.176.262-.133.238-.437.777-.703 1.238-.082.149-.238.422-.34.602-.101.18-.23.402-.277.488-.05.086-.148.258-.215.38-.07.116-.176.308-.242.421-.063.113-.16.281-.211.375l-.238.418c-.075.137-.227.398-.328.586-.215.375-.274.465-.309.473-.035.011-2.047.007-2.125 0l-.063-.008-.132-.344c-.075-.187-.223-.574-.336-.86l-.446-1.124c-1.011-2.559-1.543-3.891-1.562-3.91-.004-.004-.02 0-.027.011M113.715 17.293c-.031.02-.121.098-.332.285-.102.09-.29.262-.422.379-.129.113-.402.36-.61.54-.199.183-.413.37-.472.425-.113.098-.715.637-1.055.941-.105.098-.27.239-.355.317a2 2 0 0 0-.172.16c-.02.023-.031-.024.308 1.254.067.25.165.62.215.824.051.2.13.488.168.645.043.156.117.445.172.648.05.2.113.426.137.496.039.121.047.137.098.184.05.047.238.187 1.093.816l1.719 1.266 1.457 1.078.645.472c1.007.747 1.035.766 1.054.766.016 0 .012-.043-.015-.184-.02-.105-.024-.132-.012-.148.008-.012.14-.07.293-.133.152-.062.574-.242.937-.398l.985-.414c.176-.078.375-.164.441-.196.14-.062.133-.046.098-.25l-.055-.359c-.015-.125-.039-.285-.047-.355l-.02-.13h-.066c-.074 0-.246.02-.808.079-.215.02-.574.058-.797.082-.727.074-.957.101-1.344.14-.21.024-.406.043-.433.04-.067-.004-.04.011-.446-.293-.308-.227-.398-.297-1.066-.79-.188-.136-.496-.367-.684-.503-.183-.141-.48-.356-.656-.485-.52-.387-.54-.402-.57-.433l-.032-.032.34-.328c.188-.18.38-.37.43-.426a.6.6 0 0 1 .113-.105c.016-.004.114.031.266.09.219.09.52.207 1.39.547.54.21.727.285 1.153.453.441.176.558.215.726.242.137.023.621.05 1.149.063.5.015 1.215.042 1.672.062.18.008.382.016.453.016.12 0 .125 0 .16-.036.035-.03.144-.168.492-.605.047-.062.192-.242.32-.402.125-.157.286-.352.348-.434.063-.082.16-.203.219-.27.058-.07.113-.132.113-.148.004-.016-.152-.348-.496-1.035-.273-.559-.637-1.293-.8-1.633-.169-.34-.4-.808-.516-1.039l-.211-.426-.07-.027c-.067-.027-.544-.125-3.903-.793-1.8-.363-2.41-.484-2.52-.5-.09-.02-.148-.016-.18 0m0 0" style="stroke:none;fill-rule:nonzero;fill:#fbc5f7;fill-opacity:1"/>
	<path d="M16.965 17.473a4 4 0 0 0-.336.25c-.149.12-.36.293-.469.379-.496.394-.676.539-1.101.878-.25.2-.555.446-.684.547-.125.102-.332.266-.457.364-.398.32-.676.543-.941.754-.141.113-.454.359-.692.55-.848.684-.98.785-1.293 1.035-.105.079-.176.141-.176.153s.028.094.059.187c.113.305.855 2.434 1.043 2.977.223.64.219.633.238.656.012.02.156.024 2.266.024 2.07.003 2.262.003 2.367.023.16.027.305.082.64.227.157.07.5.218.759.332.261.113.59.257.734.316.566.25.848.367.984.422a1 1 0 0 1 .145.066c0 .02-.063.094-.246.293-.086.094-.23.258-.32.356a1.4 1.4 0 0 1-.192.195c-.016 0-.102-.008-.191-.023-.36-.063-3.032-.508-3.211-.536-.23-.03-.332-.015-.907.114-.254.058-1.53.347-2.05.46-.72.16-.75.169-.79.196-.042.027-.07.078-.14.246-.031.07-.11.266-.18.43s-.199.468-.285.676c-.086.207-.254.601-.371.878-.117.274-.262.614-.32.758-.16.38-.36.852-.508 1.196a8 8 0 0 0-.133.312c0 .008.086.047.191.094.106.043.282.12.395.172.113.054.36.164.55.25.36.164 1.055.476 1.66.754.2.09.571.257.829.37.254.118.629.29.828.38l.57.257c.11.051.29.13.391.176.242.113.328.149.414.168.086.012.246.004.606-.039.152-.02.398-.047.543-.066.144-.016.324-.035.402-.047.078-.008.55-.063 1.047-.121l1.047-.125c.078-.008.238-.028.351-.043.117-.012.297-.035.399-.047l.445-.05.496-.06.5-.058 1.402-.164 1.41-.168c.337-.035.422-.05.454-.07.027-.02.097-.141.261-.457.059-.118.13-.25.153-.297l.156-.297.27-.512c.027-.05.113-.219.191-.371.262-.504.297-.57.457-.871.086-.168.227-.434.313-.598.085-.16.234-.449.332-.64.097-.192.21-.403.246-.47.035-.07.101-.194.144-.276.078-.145.121-.231.235-.446.027-.055.101-.195.164-.312a9 9 0 0 1 .156-.293c.117-.219.168-.325.168-.352 0-.015-.074-.215-.164-.437-.211-.535-.328-.828-.492-1.262-.204-.523-.215-.555-.305-.602-.04-.02-.695-.27-.777-.297-.141-.042-.118-.05-.575.188-.86.457-1.55.816-2.14 1.121-.367.192-.72.375-.782.41a1 1 0 0 1-.148.07c-.035.008-.18-.066-.828-.437-.113-.066-.39-.223-.613-.348l-.637-.359c-.129-.074-.414-.23-.633-.355a59 59 0 0 1-.68-.383c-.949-.54-1.375-.778-1.71-.965-.212-.117-.391-.219-.399-.227-.02-.02-.016-.023.156-.218l.196-.22c.203-.226.32-.35.347-.362.031-.012.024-.012.317.101 1.07.414 2.457.957 3.437 1.344.617.246.695.273.758.273.082 0 .059.008.797-.351l.89-.43c.25-.121.551-.27.665-.324.117-.059.28-.137.363-.176l1.105-.543c.297-.144.543-.266.547-.266.024 0 .465-.226.469-.242a1.5 1.5 0 0 0-.05-.238 493.24 493.24 0 0 1-.566-2.207l-.341-1.344c-.352-1.406-.336-1.347-.36-1.347l-.199-.016-.398-.031c-.113-.008-.41-.028-.656-.047-.25-.02-.54-.04-.649-.047-.11-.008-.441-.031-.734-.055l-.742-.05c-.114-.008-.407-.028-.649-.047-.242-.02-.531-.04-.644-.047a44 44 0 0 1-.625-.047c-.23-.02-.48-.04-.551-.043a43 43 0 0 1-.68-.047c-.3-.023-.633-.047-.734-.05-.106-.009-.395-.032-.645-.048-.25-.02-.55-.043-.668-.05a6 6 0 0 1-.34-.024c-.218-.015-.285-.012-.351.02M90.805 20.074c-.207.172-.649.543-.985.82-.332.282-.87.731-1.199 1.004-.324.274-.668.559-.762.633a2 2 0 0 0-.171.149c0 .008.03.101.07.215a213 213 0 0 1 .828 2.43l.34.991.59 1.73.64 1.872c.094.281.254.754.356 1.05l.3.88c.063.187.157.465.211.609.133.379.141.41.122.453a5 5 0 0 1-.16.184c-.079.082-.18.191-.227.238-.043.05-.293.309-.551.578l-.644.676c-.094.105-.305.328-.465.5-.16.168-.301.32-.309.332-.016.02 0 .023.246.105.235.075.785.266 2.297.79.277.093.586.203.688.238.105.035.19.062.195.058.008-.007.367-1.98.555-3.047.074-.406.097-.53.113-.562.004-.012.039-.027.074-.04.055-.015.668-.144.691-.144a.5.5 0 0 1 .04.141c.062.34.085.457.128.719.028.152.075.406.102.562l.078.453.102.555c.039.211.093.54.129.73.09.504.105.602.12.626.012.015.055.02.239.027.258.012 1.05.062 1.73.113.145.008.266.016.274.012a.4.4 0 0 0 .027-.094c.02-.086.035-.176.168-.95.04-.25.09-.542.11-.651l.113-.657c.105-.617.441-2.57.476-2.789.028-.133.098-.566.106-.636.012-.063-.012-.243-.063-.528-.02-.105-.062-.34-.093-.52-.032-.175-.079-.41-.094-.515-.02-.11-.055-.297-.074-.418l-.172-.953c-.04-.215-.09-.492-.11-.613-.023-.125-.062-.344-.09-.489-.023-.144-.062-.359-.082-.468a11 11 0 0 0-.132-.676.6.6 0 0 0-.063-.121c-.05-.067-.254-.29-.43-.477-.066-.066-.187-.203-.277-.3-.406-.45-.531-.59-.73-.797-.114-.125-.29-.313-.383-.418-.274-.305-.645-.711-.813-.887a15 15 0 0 1-.312-.34 65 65 0 0 0-.703-.77c-.27-.285-.313-.332-.617-.671-.145-.164-.336-.371-.422-.465-.09-.094-.29-.309-.442-.48a6 6 0 0 0-.297-.31 8 8 0 0 0-.386.313m3.086 5.328c-.028.07-.067.285-.207 1.035-.051.262-.118.618-.153.793a5 5 0 0 0-.066.356c0 .031.023.055.172.2.293.276.457.433.773.737.164.165.36.348.43.415.07.062.12.117.117.12-.008.008-.668 0-1.016-.011-.898-.031-1.09-.035-1.113-.027q-.026.003-.05.066c-.016.035-.145.418-.29.852a19 19 0 0 1-.289.835q-.042.095-.062.008c-.016-.11-.094-.5-.14-.718-.071-.333-.114-.524-.161-.766-.023-.113-.05-.223-.055-.246l-.011-.035-.079.004c-.105.007-.957.05-1.203.058l-.199.008.023-.035c.016-.02.137-.176.278-.34.137-.168.27-.332.297-.363.027-.032.12-.149.215-.258.222-.258.234-.274.234-.324a5 5 0 0 0-.102-.41c-.058-.208-.12-.422-.136-.485-.016-.062-.078-.277-.133-.473a8 8 0 0 1-.11-.378c-.007-.051-.035-.067 1.02.632.27.18.336.22.363.22.008 0 .082-.075.172-.165.09-.086.281-.27.426-.402.144-.13.418-.387.61-.567.367-.343.456-.425.464-.41a1 1 0 0 1-.02.074m0 0" style="stroke:none;fill-rule:nonzero;fill:#d5b5ff;fill-opacity:1"/>
	<path d="M72.148 19.875c-.02.031-.183.316-.675 1.188-.13.226-.293.519-.368.648-.074.129-.14.242-.14.25-.008.016.02.023.183.047.18.027.551.082 1.278.203.16.023.472.074.699.113l.805.13.55.085a144.764 144.764 0 0 0 2.465.395c.117.015.227.035.242.035.032.011.032.027.008.113-.007.035-.078.297-.152.582l-.52 1.984c-.082.313-.214.825-.296 1.133-.082.313-.18.688-.22.836-.042.149-.163.621-.273 1.043-.226.848-.41 1.547-.632 2.406-.082.313-.165.622-.18.688-.02.07-.055.207-.082.308-.028.098-.153.583-.281 1.07-.13.49-.262 1.005-.301 1.15-.035.14-.102.374-.14.523-.044.144-.075.27-.071.273 0 .008.035.02.078.031.094.02.691.153 1.191.266.215.047.567.129.778.176.687.156 1.015.23 1.21.277.106.027.223.05.258.055.079.008.063.015.325-.184.16-.12.804-.601 1.199-.894.105-.078.246-.18.312-.227a.4.4 0 0 0 .133-.113c.016-.035-.004-1.602-.023-2.172a41 41 0 0 1-.024-1.098c-.007-.433-.02-.937-.023-1.12a19 19 0 0 1-.02-1.079c.012-.043.079-.074.387-.183l.348-.125c.05-.016.094-.032.094-.028l.367 1.067c.14.418.488 1.43.765 2.246l.856 2.511c.058.172.117.336.129.356a.2.2 0 0 0 .054.05c.02.012.227.079.465.157.867.273 1.914.61 2.223.71.176.06.328.106.344.106.035 0 .101-.05.273-.207.086-.078.238-.215.344-.304.101-.09.27-.239.375-.329.101-.093.242-.218.312-.277.075-.062.215-.187.317-.277l.43-.38c.132-.116.359-.312.503-.44.332-.294.899-.79 1.032-.903a1 1 0 0 0 .109-.113 2 2 0 0 0-.094-.336 91 91 0 0 1-.293-.945c-.199-.66-.437-1.387-.656-2.008-.066-.2-.2-.574-.29-.836-.272-.797-.335-.98-.581-1.692-.129-.375-.274-.785-.317-.918-.042-.128-.187-.55-.324-.933-.133-.387-.297-.871-.367-1.078-.14-.426-.187-.532-.254-.602a34 34 0 0 0-.883-.793l-.398-.355a59 59 0 0 0-.793-.703c-.121-.11-.281-.254-.356-.317l-.304-.27a56 56 0 0 0-.551-.492c-.09-.078-.242-.214-.34-.304a2 2 0 0 0-.21-.18c-.036-.016-.048-.012-.239.055-.383.137-1.527.531-1.852.64-.453.157-.593.207-.593.227 0 .008.101.11.23.223.125.117.36.34.516.492.62.613.828.812 1.523 1.465.508.484.797.773.84.843.047.07.102.239.211.641l.172.602c.047.164.164.566.254.894.312 1.082.488 1.7.547 1.895.03.105.062.218.066.25.008.05.004.054-.035.078a3 3 0 0 1-.274.129c-.128.058-.277.125-.328.152l-.101.043-.035-.043a4 4 0 0 1-.164-.258c-.07-.117-.196-.32-.274-.453-.082-.129-.172-.277-.207-.332-.035-.059-.219-.355-.41-.668-.192-.308-.438-.71-.55-.894-.493-.809-.727-1.184-.813-1.305-.09-.129-.227-.266-.555-.54a13 13 0 0 1-.375-.32c-.05-.046-.195-.171-.32-.277l-.36-.305c-.07-.062-.207-.18-.304-.261a9 9 0 0 1-.274-.235c-.055-.047-.195-.168-.316-.27a11 11 0 0 1-.309-.265c-.05-.047-.195-.168-.316-.27l-.325-.277c-.054-.05-.18-.156-.277-.242a14 14 0 0 1-.355-.3c-.223-.2-.278-.239-.39-.294-.122-.058-.188-.074-.9-.218a75 75 0 0 1-.87-.176c-.149-.027-.645-.129-1.11-.223-.46-.097-.894-.183-.96-.203a2 2 0 0 0-.138-.027c-.011 0-.027.015-.039.031M30.473 21.531c-.008.008-.196.309-.414.672a97 97 0 0 1-.528.883l-.46.773c-.184.301-.356.586-.387.633l-.063.086.067.129c.039.074.156.309.265.523.195.383.531 1.051 1.129 2.243l.313.617c.027.039.257.512.257.531 0 .031-.035.098-.222.438-.075.132-.196.359-.27.503-.074.141-.21.391-.3.56-.09.163-.239.437-.325.605l-.32.593a27 27 0 0 0-.309.578c-.086.157-.226.418-.312.582-.09.16-.246.454-.348.649-.105.191-.242.445-.308.562-.184.329-.231.434-.247.536-.003.05-.015.332-.02.628l-.007.54 1.723-.004h1.722l.012-.032a61.04 61.04 0 0 0 .23-.996c.079-.336.169-.73.2-.87.031-.145.14-.61.234-1.036.098-.422.203-.895.238-1.047.059-.289.122-.543.133-.562.004-.008.028-.008.051-.004.066.011 2.14.535 2.203.554.031.012.055.024.055.028a1 1 0 0 1-.028.09c-.042.117-.152.433-.539 1.586a215 215 0 0 1-.46 1.375 3 3 0 0 0-.11.351c.004.004.106.059.219.117.203.106.996.524 1.355.72.176.097.27.14.293.14.008 0 .317-.301.684-.668.719-.723.715-.719.758-.887.02-.086.043-.223.105-.605.094-.59.133-.82.278-1.7.082-.511.21-1.293.285-1.738.258-1.574.297-1.816.367-2.227.039-.23.07-.433.07-.449 0-.027-.043-.09-.16-.246l-.328-.433c-.207-.27-.363-.473-1.168-1.528-.34-.449-.785-1.031-.988-1.297-.203-.265-.43-.566-.508-.668-.078-.097-.332-.437-.567-.746-.238-.308-.457-.59-.488-.625-.09-.097-.148-.113-.683-.18a287 287 0 0 1-2.145-.269c-.207-.027-.207-.027-.234-.008m2.398 3.102c.066.101.195.281.277.402.086.121.254.36.38.535.12.176.238.332.253.348l.032.027.808-.004c.445 0 .82-.003.832-.007.04-.008.016.027-.098.156-.066.07-.234.258-.37.418-.141.156-.31.344-.376.414l-.125.125.032.039.125.172c.058.074.18.246.277.383.156.222.687.957.785 1.09.031.039.04.054.024.058-.008 0-.082-.031-.164-.07a2 2 0 0 0-.157-.07c-.027 0-.86-.438-1.36-.715a1 1 0 0 0-.187-.094c-.007 0-.125.152-.261.336-.137.187-.328.441-.426.566-.094.125-.262.348-.371.496-.11.145-.215.285-.239.309-.046.047-.082.058-.07.023a10 10 0 0 0-.05-.851c-.02-.235-.04-.524-.047-.64-.016-.29-.043-.536-.067-.571-.02-.031-.07-.063-.266-.164-.09-.047-.3-.157-.464-.246-.16-.086-.489-.262-.727-.387-.414-.219-.566-.309-.55-.324.007-.004.074-.012.156-.024.175-.015 2.043-.277 2.058-.285.016-.012.024-.07.047-.312.117-1.184.133-1.32.156-1.32.004 0 .063.085.133.187m0 0" style="stroke:none;fill-rule:nonzero;fill:#d5b5ff;fill-opacity:1"/>
	<path d="m61.7 21.625-.13.172-.906 1.265c-.137.188-.27.372-.3.407-.083.093-.087.11-.067.16.031.086.64 1.41.7 1.523.034.063.085.157.12.207.051.082.696 1.032 1.047 1.547.18.262.273.418.316.532.02.05.102.312.184.582.078.273.184.62.23.777l.172.562c.043.157.133.457.2.668.16.528.37 1.235.445 1.48.031.114.066.216.07.223.016.02 1.196.02 1.266 0a.16.16 0 0 0 .086-.066 321 321 0 0 1 1.066-1.273c.055-.07.172-.207.258-.309.082-.098.2-.238.258-.305.234-.289.45-.543.62-.746.103-.117.216-.254.259-.304.11-.141.375-.442.39-.446.02-.008.012 6.032-.007 6.043-.016.008-.25.047-.88.137-.218.035-.484.074-.593.09l-.711.105-.95.14c-.234.036-.534.083-.671.102l-.473.07c-1.078.165-1.12.173-2.219.36-.43.074-1.117.192-1.523.258-1.621.277-2.555.437-2.594.45q-.018.006-.02.015c0 .004.044.062.094.129.168.222.485.648 1.622 2.172 1.593 2.144 1.445 1.949 1.48 1.949.016 0 .113-.028.211-.059.281-.09 1.422-.453 1.648-.527.114-.035.399-.125.637-.203.238-.075.578-.184.754-.242.484-.153 1.25-.395 1.863-.594l.75-.239c.203-.066 1.192-.382 2.399-.765l1.863-.598c.36-.11.395-.125.434-.195.015-.031.14-.406.28-.84.142-.43.294-.902.345-1.05.047-.153.148-.462.222-.692.07-.227.203-.633.29-.895.085-.261.214-.656.285-.882.07-.223.19-.586.265-.813.07-.223.195-.602.274-.848.078-.242.27-.828.421-1.304l1.29-3.973.25-.766a1.6 1.6 0 0 0 .078-.265c-.016-.016-.489-.094-1.243-.211-.125-.02-.386-.059-.574-.086l-.61-.098c-.144-.02-.382-.058-.53-.082-.149-.02-.391-.058-.54-.082-.148-.02-.456-.07-.69-.105-.231-.035-.52-.082-.641-.098-.125-.02-.329-.05-.457-.074-.13-.02-.356-.05-.504-.074l-.485-.078c-.332-.06-.297-.06-.344.019-.023.04-.148.281-.277.54-.129.26-.289.573-.351.694-.063.125-.188.368-.274.543-.09.172-.219.426-.289.559s-.21.406-.312.61a9 9 0 0 1-.247.452c-.078.114-.23.262-.699.672-.09.082-.277.254-.625.582a.5.5 0 0 1-.097.075c-.012 0-.118-.137-.243-.305a28 28 0 0 0-.675-.879l-.086-.105.039-.04c.02-.023.09-.082.156-.136.063-.051.207-.172.316-.266s.286-.246.395-.336.215-.18.234-.195l.035-.031.008-.2c.02-.386.035-.933.047-1.441.004-.281.016-.648.024-.82.011-.328.011-.387-.024-.403a9 9 0 0 0-.355-.148c-.325-.129-1.493-.61-1.864-.766-.101-.043-.386-.156-.632-.258-.243-.101-.555-.226-.688-.28a5 5 0 0 0-.262-.102.1.1 0 0 0-.035.027m0 0" style="stroke:none;fill-rule:nonzero;fill:#fbc5f7;fill-opacity:1"/>
	<path d="M36.586 22.691c0 .02.047.086.332.442.668.844.977 1.234 1.219 1.543.144.18.37.469.504.637.132.167.359.457.511.644.149.188.305.387.352.441.121.149.144.188.144.247 0 .023-.011.152-.027.28a315.122 315.122 0 0 1-.29 2.43l-.3 2.582L38.902 33a1 1 0 0 0-.011.098c0 .004.265.007.59.004.492 0 .597-.004.609-.016.008-.012.035-.066.058-.125a47.148 47.148 0 0 1 .41-.91c.055-.125.149-.332.208-.461.058-.125.152-.34.21-.477.141-.312.22-.492.274-.601.035-.07.047-.086.07-.086.016 0 .157.031.313.066l1.265.278c.262.054.262.054.262.07 0 .008-.117.27-.262.578-.144.312-.332.723-.418.914-.09.191-.214.461-.277.602-.066.136-.172.359-.23.492s-.18.398-.27.586c-.086.191-.191.422-.234.52-.086.198-.192.402-.203.402-.004 0-.614.004-1.36.004-1.312.003-1.351.003-1.398.027-.028.012-.203.18-.45.422-.222.218-.581.57-.8.781-.219.21-.598.582-.844.824-.988.985-.89.89-.926.875-.152-.058-.683-.265-1.93-.738-.386-.145-.757-.29-.824-.313a3 3 0 0 0-.222-.082c-.117-.043-.094-.054-.254.137l-.184.215-.082.09.035.027c.02.016.149.102.285.2.141.093.329.226.422.292.184.13.477.332 1.153.805.238.164.558.39.707.496.355.25.355.25.418.246.027 0 .144-.02.265-.047.278-.062 1.13-.25 1.371-.3.102-.02.493-.106.86-.188.37-.082.785-.172.918-.203.136-.027.402-.086.586-.129.367-.078 1.097-.238 1.691-.371.203-.043.527-.113.719-.156.195-.043.742-.16 1.219-.266.476-.105.925-.203.992-.219.21-.047.824-.18 1.097-.234.282-.063.473-.11.504-.125.028-.016.04-.066.075-.3.046-.306.105-.716.152-1l.082-.517c.02-.144.066-.425.098-.628.03-.207.086-.563.12-.79.04-.23.09-.574.122-.761.027-.188.086-.559.129-.828.039-.27.101-.676.14-.907.035-.23.082-.535.106-.683.02-.145.066-.43.097-.637.032-.203.075-.46.09-.574.102-.723.137-.848.38-1.348.058-.125.152-.32.21-.441.055-.121.13-.274.16-.344.082-.176.313-.656.418-.875.051-.105.13-.27.176-.371.047-.102.18-.383.297-.629l.293-.613c.039-.09.117-.25.168-.352l.176-.367c.043-.098.097-.207.113-.242a.3.3 0 0 0 .035-.082c0-.012-.043-.02-.184-.031l-.5-.043c-.175-.016-.39-.036-.48-.043-.09-.004-.312-.024-.496-.04-.184-.019-.465-.042-.629-.054-.16-.012-.477-.035-.707-.059-1.055-.09-1.363-.117-1.531-.129a36 36 0 0 1-.559-.046c-.203-.02-.453-.04-.555-.047-.097-.008-.355-.028-.566-.047-.21-.02-.535-.047-.715-.059-.289-.023-.496-.043-.722-.066-.067-.008-.067-.008-.067.023 0 .051.031.184.153.64.066.243.18.68.257.974l.192.718c.113.39.125.477.093.664-.007.07-.066.371-.12.676-.172.895-.196 1.02-.258 1.367-.067.371-.102.535-.125.555-.012.016-.036.016-.13.004-.202-.02-.722-.082-.75-.09-.023-.004-.027-.012-.027-.09 0-.047.008-.203.02-.344l.05-.847c.02-.324.044-.7.055-.832.028-.414.04-.36-.12-.66a22 22 0 0 0-.25-.47c-.098-.179-.266-.491-.41-.765-.028-.047-.157-.289-.29-.535-.137-.246-.273-.504-.312-.574a8 8 0 0 0-.29-.524.4.4 0 0 0-.109-.03 62 62 0 0 0-1.598-.161 8 8 0 0 1-.593-.062q-.012-.007-.012.003m0 0" style="stroke:none;fill-rule:nonzero;fill:#d5b5ff;fill-opacity:1"/>
	<path d="M122.695 28.871a3 3 0 0 0-.273.168c-.277.18-.586.379-1.059.68l-.656.418c-.168.113-.41.265-.535.343a6 6 0 0 0-.375.247c-.14.093-.149.097-.18.082a5 5 0 0 1-.234-.18c-.113-.09-.254-.203-.32-.25l-.356-.281a87 87 0 0 0-.844-.66c-.093-.075-.23-.184-.304-.239a1 1 0 0 0-.145-.105c-.02 0-.031.02-.055.078-.011.027-.097.207-.191.406s-.2.418-.23.488c-.11.243-.325.696-.489 1.043-.09.192-.23.477-.304.641-.34.73-.43.914-.586 1.242-.153.32-.223.465-.551 1.176l-.25.527a3 3 0 0 0-.133.297c0 .008.07.102.16.207.086.102.36.43.606.73.242.298.492.598.55.673.059.074.121.136.133.144.016.008.051.004.145-.023.062-.02.297-.086.511-.149.215-.058.536-.148.707-.199l.645-.184c.48-.132.7-.195 1.332-.375.316-.09.824-.23 1.125-.316 1.211-.344 1.133-.32 1.2-.375.05-.04.097-.117.261-.402l.375-.641.977-1.684c.226-.394.503-.863.59-1.007.042-.07.093-.16.109-.192l.027-.058-.027-.055a1.4 1.4 0 0 0-.11-.188 11 11 0 0 1-.195-.332c-.105-.183-.36-.62-.648-1.117-.075-.125-.18-.312-.239-.414a2 2 0 0 0-.113-.187c-.004 0-.027.011-.05.023m0 0" style="stroke:none;fill-rule:nonzero;fill:#fbc5f7;fill-opacity:1"/>
	<path d="M108.781 36.344c-.035.043-.12.168-.195.273-.125.184-.219.32-.762 1.102-.129.18-.36.511-.515.738-.313.457-.375.543-.407.559-.035.02-.316.054-.804.109-.25.023-.645.066-.875.094-.235.023-.551.058-.703.074-.329.035-.348.039-1.407.156-1.09.117-1.105.121-1.156.137-.027.008-.043.02-.039.031.004.008.133.098.289.196.16.101.45.28.645.406 1.285.804 1.843 1.156 1.933 1.21.153.094.156.094.137.145-.016.04-.113.219-.422.781-.082.149-.203.375-.273.504-.07.133-.196.364-.282.52s-.23.422-.32.594a41 41 0 0 1-.504.91c0 .027.078-.012.399-.196.195-.113.593-.34.886-.507a391 391 0 0 0 1.746-1c.364-.207.496-.278.524-.278.05 0 .082.016.855.438.352.191.742.406.871.472.13.07.496.27.817.442.867.476 1.105.601 1.152.621l.043.016-.008-.059a9 9 0 0 1-.023-.266c-.012-.109-.028-.28-.035-.382a13 13 0 0 1-.043-.504c-.012-.18-.035-.418-.047-.532-.012-.113-.031-.343-.047-.515a21 21 0 0 0-.05-.59l-.044-.434c-.008-.09-.02-.21-.027-.265-.008-.059-.012-.117-.008-.13.012-.026.055-.066.324-.284.102-.082.258-.211.344-.29.152-.128.367-.304.688-.574.082-.066.23-.191.332-.273.097-.086.25-.215.34-.285.085-.07.226-.192.316-.266.086-.074.238-.199.332-.281.515-.422.578-.477.578-.504 0-.02-.086-.012-.469.027-.148.016-.5.047-.777.075-.278.027-.746.07-1.043.101-.293.028-.754.074-1.016.098-.265.027-.59.058-.722.074-.172.016-.25.02-.258.012a1.5 1.5 0 0 1-.024-.239c-.015-.359-.054-.968-.078-1.246a15 15 0 0 1-.047-.629c-.027-.398-.03-.464-.05-.464a.6.6 0 0 0-.07.078m0 0" style="stroke:none;fill-rule:nonzero;fill:#ffffb9;fill-opacity:1"/>
</svg>